<?xml version="1.0" encoding="UTF-8"?>
<svg width="17px" height="21px" viewBox="0 0 17 21" version="1.1" xmlns="http://www.w3.org/2000/svg" xmlns:xlink="http://www.w3.org/1999/xlink">
    <!-- Generator: Sketch 45.2 (43514) - http://www.bohemiancoding.com/sketch -->
    <title>Alarm</title>
    <desc>Created with Sketch.</desc>
    <defs></defs>
    <g id="Page-1" stroke="none" stroke-width="1" fill="none" fill-rule="evenodd">
        <path d="M16.2760124,13.5633436 L16.2760124,14.919678 L10.8506749,14.919678 L8.13800618,14.919678 L5.42533746,14.919678 L0,14.919678 L0,13.5633436 L2.71266873,13.5633436 C2.71266873,8.39640889 4.5184075,4.0729804 6.93659838,2.97963138 C6.8376569,2.69723083 6.78167182,2.37567321 6.78167182,2.03450155 C6.78167182,0.910877313 7.38892336,0 8.13800618,0 C8.88708901,0 9.49434055,0.910877313 9.49434055,2.03450155 C9.49434055,2.37567321 9.43835546,2.69723083 9.33941399,2.97963138 C11.7576049,4.0729804 13.5633436,8.39640889 13.9057592,13.5633436 L16.2760124,13.5633436 Z M6.78167182,17.6323467 C6.78167182,17.1382465 6.84772277,16.6750004 6.96312519,16.2760124 L9.31288718,16.2760124 C9.4282896,16.6750004 9.49434055,17.1382465 9.49434055,17.6323467 C9.49434055,19.1305124 8.88708901,20.3450155 8.13800618,20.3450155 C7.38892336,20.3450155 6.78167182,19.1305124 6.78167182,17.6323467 Z" id="Alarm" fill="#FFFFFF"></path>
    </g>
</svg>