<?xml version="1.0" encoding="UTF-8"?>
<svg width="12px" height="22px" viewBox="0 0 12 22" version="1.1" xmlns="http://www.w3.org/2000/svg" xmlns:xlink="http://www.w3.org/1999/xlink">
    <!-- Generator: Sketch 45.2 (43514) - http://www.bohemiancoding.com/sketch -->
    <title>Group</title>
    <desc>Created with Sketch.</desc>
    <defs></defs>
    <g id="Page-1" stroke="none" stroke-width="1" fill="none" fill-rule="evenodd" stroke-linecap="round" stroke-linejoin="round">
        <g id="Group" transform="translate(1.000000, 1.000000)" stroke="#3F3F3F">
            <path d="M0.502762995,5.53039295 L0.502762995,14.6365944" id="Stroke-423" transform="translate(0.502763, 10.083494) scale(1, -1) translate(-0.502763, -10.083494) "></path>
            <path d="M10.0208773,0.768284787 C10.0208773,3.84418879 8.4205843,5.71368492 5.15861949,5.71368492 C1.89665467,5.71368492 0.486796253,3.15287251 0.486796253,0.0769685087" id="Stroke-424" transform="translate(5.253837, 2.895327) scale(1, -1) translate(-5.253837, -2.895327) "></path>
            <path d="M10.0552599,5.02762995 L10.0552599,16.0884158" id="Stroke-425" transform="translate(10.306641, 10.558023) scale(1, -1) translate(-10.306641, -10.558023) "></path>
            <path d="M10.0715738,18.7793993 C10.0715738,16.6748334 8.90404541,15.2495055 6.54407591,15.2495055 C4.18410641,15.2495055 3.01657797,17.3999899 3.01657797,19.5045558" id="Stroke-426" transform="translate(6.544076, 17.377031) scale(1, -1) translate(-6.544076, -17.377031) "></path>
            <path d="M3.01657797,6.53591894 L3.01657797,15.5856529" id="Stroke-427" transform="translate(3.267959, 11.060786) scale(1, -1) translate(-3.267959, -11.060786) "></path>
            <path d="M7.01960623,4.13453265 C7.01960623,5.52266128 6.56424061,6.53591894 5.17611198,6.53591894 C3.78798335,6.53591894 3.01657797,5.41152257 3.01657797,4.02339394" id="Stroke-428" transform="translate(5.018092, 5.279656) scale(1, -1) translate(-5.018092, -5.279656) "></path>
            <path d="M7.03868193,6.53591894 L7.03868193,14.0773639" id="Stroke-429" transform="translate(7.290063, 10.306641) scale(1, -1) translate(-7.290063, -10.306641) "></path>
        </g>
    </g>
</svg>